<mxfile host="Electron" modified="2024-10-14T01:12:49.858Z" agent="Mozilla/5.0 (Windows NT 10.0; Win64; x64) AppleWebKit/537.36 (KHTML, like Gecko) draw.io/24.4.0 Chrome/120.0.6099.109 Electron/28.1.0 Safari/537.36" etag="bL6pBpr5oVDPXUEyqdzs" version="24.4.0" type="device">
  <diagram name="Page-1" id="DLO9v43shEpTYN_1pCtw">
    <mxGraphModel dx="2474" dy="1596" grid="0" gridSize="10" guides="1" tooltips="1" connect="1" arrows="1" fold="1" page="0" pageScale="1" pageWidth="850" pageHeight="1100" background="none" math="0" shadow="0">
      <root>
        <mxCell id="0" />
        <mxCell id="1" parent="0" />
        <mxCell id="xBwSClYj_of-0-4DWHHe-77" style="edgeStyle=orthogonalEdgeStyle;rounded=0;orthogonalLoop=1;jettySize=auto;html=1;exitX=0;exitY=1;exitDx=0;exitDy=0;entryX=0;entryY=0.5;entryDx=0;entryDy=0;" parent="1" source="zIfkRoRt6WV4c4BQkqJL-78" target="zIfkRoRt6WV4c4BQkqJL-93" edge="1">
          <mxGeometry relative="1" as="geometry">
            <Array as="points">
              <mxPoint x="-45" y="672" />
              <mxPoint x="-45" y="937" />
            </Array>
          </mxGeometry>
        </mxCell>
        <mxCell id="xBwSClYj_of-0-4DWHHe-80" style="edgeStyle=orthogonalEdgeStyle;rounded=0;orthogonalLoop=1;jettySize=auto;html=1;exitX=1;exitY=1;exitDx=0;exitDy=0;entryX=0.997;entryY=0.5;entryDx=0;entryDy=0;entryPerimeter=0;" parent="1" source="zIfkRoRt6WV4c4BQkqJL-78" target="zIfkRoRt6WV4c4BQkqJL-79" edge="1">
          <mxGeometry relative="1" as="geometry">
            <Array as="points">
              <mxPoint x="526" y="741" />
              <mxPoint x="945" y="741" />
              <mxPoint x="945" y="767" />
              <mxPoint x="1067" y="767" />
              <mxPoint x="1067" y="937" />
            </Array>
          </mxGeometry>
        </mxCell>
        <mxCell id="zIfkRoRt6WV4c4BQkqJL-78" value="" style="rounded=0;whiteSpace=wrap;html=1;fillColor=none;strokeColor=#FF0A0A;strokeWidth=9;" parent="1" vertex="1">
          <mxGeometry x="196" y="284" width="330" height="400" as="geometry" />
        </mxCell>
        <mxCell id="7UAOwMNrpQcqeLbvGITE-61" style="edgeStyle=orthogonalEdgeStyle;rounded=0;orthogonalLoop=1;jettySize=auto;html=1;exitX=0.25;exitY=1;exitDx=0;exitDy=0;entryX=0;entryY=0.5;entryDx=0;entryDy=0;" parent="1" source="zIfkRoRt6WV4c4BQkqJL-57" target="zIfkRoRt6WV4c4BQkqJL-60" edge="1">
          <mxGeometry relative="1" as="geometry" />
        </mxCell>
        <mxCell id="zIfkRoRt6WV4c4BQkqJL-57" value="" style="rounded=0;whiteSpace=wrap;html=1;fillColor=none;strokeColor=#FFB366;strokeWidth=9;" parent="1" vertex="1">
          <mxGeometry x="573" y="464" width="180" height="100" as="geometry" />
        </mxCell>
        <mxCell id="zIfkRoRt6WV4c4BQkqJL-9" value="Activate Arm and Angle Modes" style="rounded=0;whiteSpace=wrap;html=1;" parent="1" vertex="1">
          <mxGeometry x="1301" y="351" width="120" height="60" as="geometry" />
        </mxCell>
        <mxCell id="zIfkRoRt6WV4c4BQkqJL-17" style="edgeStyle=orthogonalEdgeStyle;rounded=0;orthogonalLoop=1;jettySize=auto;html=1;fillColor=#d5e8d4;strokeColor=#82b366;" parent="1" source="zIfkRoRt6WV4c4BQkqJL-16" target="zIfkRoRt6WV4c4BQkqJL-19" edge="1">
          <mxGeometry relative="1" as="geometry">
            <mxPoint x="278" y="252" as="targetPoint" />
          </mxGeometry>
        </mxCell>
        <mxCell id="zIfkRoRt6WV4c4BQkqJL-18" value="Yes" style="edgeLabel;html=1;align=center;verticalAlign=middle;resizable=0;points=[];" parent="zIfkRoRt6WV4c4BQkqJL-17" vertex="1" connectable="0">
          <mxGeometry x="-0.4075" y="-1" relative="1" as="geometry">
            <mxPoint x="1" y="4" as="offset" />
          </mxGeometry>
        </mxCell>
        <mxCell id="7UAOwMNrpQcqeLbvGITE-3" style="edgeStyle=orthogonalEdgeStyle;rounded=0;orthogonalLoop=1;jettySize=auto;html=1;exitX=0;exitY=0.5;exitDx=0;exitDy=0;fillColor=#f8cecc;strokeColor=#b85450;" parent="1" source="zIfkRoRt6WV4c4BQkqJL-16" edge="1">
          <mxGeometry relative="1" as="geometry">
            <mxPoint x="94" y="131" as="targetPoint" />
            <Array as="points">
              <mxPoint x="-45" y="195" />
              <mxPoint x="-45" y="131" />
            </Array>
          </mxGeometry>
        </mxCell>
        <mxCell id="7UAOwMNrpQcqeLbvGITE-4" value="No" style="edgeLabel;html=1;align=center;verticalAlign=middle;resizable=0;points=[];" parent="7UAOwMNrpQcqeLbvGITE-3" vertex="1" connectable="0">
          <mxGeometry x="-0.2646" y="-3" relative="1" as="geometry">
            <mxPoint x="-1" y="7" as="offset" />
          </mxGeometry>
        </mxCell>
        <mxCell id="zIfkRoRt6WV4c4BQkqJL-16" value="GPIO 5&lt;div&gt;&lt;br&gt;&lt;/div&gt;&lt;div&gt;High&lt;/div&gt;" style="rhombus;whiteSpace=wrap;html=1;" parent="1" vertex="1">
          <mxGeometry x="13" y="155" width="160" height="80" as="geometry" />
        </mxCell>
        <mxCell id="7UAOwMNrpQcqeLbvGITE-6" style="edgeStyle=orthogonalEdgeStyle;rounded=0;orthogonalLoop=1;jettySize=auto;html=1;exitX=0.5;exitY=1;exitDx=0;exitDy=0;entryX=0.5;entryY=0;entryDx=0;entryDy=0;fillColor=#d5e8d4;strokeColor=#82b366;" parent="1" source="zIfkRoRt6WV4c4BQkqJL-19" target="7UAOwMNrpQcqeLbvGITE-5" edge="1">
          <mxGeometry relative="1" as="geometry" />
        </mxCell>
        <mxCell id="zIfkRoRt6WV4c4BQkqJL-19" value="Activate Line Following .py" style="rounded=0;whiteSpace=wrap;html=1;" parent="1" vertex="1">
          <mxGeometry x="33" y="268" width="120" height="49" as="geometry" />
        </mxCell>
        <mxCell id="zIfkRoRt6WV4c4BQkqJL-38" style="edgeStyle=orthogonalEdgeStyle;rounded=0;orthogonalLoop=1;jettySize=auto;html=1;exitX=1;exitY=0.5;exitDx=0;exitDy=0;entryX=0.057;entryY=0.533;entryDx=0;entryDy=0;entryPerimeter=0;" parent="1" source="zIfkRoRt6WV4c4BQkqJL-31" target="zIfkRoRt6WV4c4BQkqJL-36" edge="1">
          <mxGeometry relative="1" as="geometry" />
        </mxCell>
        <mxCell id="zIfkRoRt6WV4c4BQkqJL-31" value="Enable Line Following protocole" style="rounded=0;whiteSpace=wrap;html=1;" parent="1" vertex="1">
          <mxGeometry x="32.99999999999997" y="597" width="120" height="60" as="geometry" />
        </mxCell>
        <mxCell id="zIfkRoRt6WV4c4BQkqJL-37" style="edgeStyle=orthogonalEdgeStyle;rounded=0;orthogonalLoop=1;jettySize=auto;html=1;entryX=0;entryY=0.5;entryDx=0;entryDy=0;exitX=1;exitY=0.5;exitDx=0;exitDy=0;" parent="1" source="zIfkRoRt6WV4c4BQkqJL-36" target="zIfkRoRt6WV4c4BQkqJL-39" edge="1">
          <mxGeometry relative="1" as="geometry">
            <mxPoint x="217.99999999999955" y="701" as="targetPoint" />
          </mxGeometry>
        </mxCell>
        <mxCell id="zIfkRoRt6WV4c4BQkqJL-36" value="Line Matches Matrix #" style="rhombus;whiteSpace=wrap;html=1;" parent="1" vertex="1">
          <mxGeometry x="215.99999999999997" y="579" width="140" height="90" as="geometry" />
        </mxCell>
        <mxCell id="7UAOwMNrpQcqeLbvGITE-37" style="edgeStyle=orthogonalEdgeStyle;rounded=0;orthogonalLoop=1;jettySize=auto;html=1;exitX=0.5;exitY=0;exitDx=0;exitDy=0;fillColor=#0050ef;strokeColor=#001DBC;" parent="1" source="zIfkRoRt6WV4c4BQkqJL-39" edge="1">
          <mxGeometry relative="1" as="geometry">
            <mxPoint x="445" y="516" as="targetPoint" />
          </mxGeometry>
        </mxCell>
        <mxCell id="zIfkRoRt6WV4c4BQkqJL-39" value="Send Flight commands to variables assigennd to matched matrix" style="rounded=0;whiteSpace=wrap;html=1;" parent="1" vertex="1">
          <mxGeometry x="385" y="594" width="120" height="60" as="geometry" />
        </mxCell>
        <mxCell id="wATlGdBWmdpMfZXK4wpc-16" style="edgeStyle=orthogonalEdgeStyle;rounded=0;orthogonalLoop=1;jettySize=auto;html=1;entryX=0.5;entryY=1;entryDx=0;entryDy=0;" parent="1" source="zIfkRoRt6WV4c4BQkqJL-58" target="zIfkRoRt6WV4c4BQkqJL-67" edge="1">
          <mxGeometry relative="1" as="geometry" />
        </mxCell>
        <mxCell id="zIfkRoRt6WV4c4BQkqJL-58" value="Pause all active motor functions&amp;nbsp;" style="rounded=0;whiteSpace=wrap;html=1;fillColor=#ffe6cc;strokeColor=#d79b00;" parent="1" vertex="1">
          <mxGeometry x="902.5" y="635" width="120" height="60" as="geometry" />
        </mxCell>
        <mxCell id="7UAOwMNrpQcqeLbvGITE-60" style="edgeStyle=orthogonalEdgeStyle;rounded=0;orthogonalLoop=1;jettySize=auto;html=1;exitX=0;exitY=0.5;exitDx=0;exitDy=0;entryX=1;entryY=0.75;entryDx=0;entryDy=0;fillColor=#d5e8d4;strokeColor=#82b366;" parent="1" source="zIfkRoRt6WV4c4BQkqJL-67" target="zIfkRoRt6WV4c4BQkqJL-57" edge="1">
          <mxGeometry relative="1" as="geometry" />
        </mxCell>
        <mxCell id="7UAOwMNrpQcqeLbvGITE-62" value="Yes" style="edgeLabel;html=1;align=center;verticalAlign=middle;resizable=0;points=[];" parent="7UAOwMNrpQcqeLbvGITE-60" vertex="1" connectable="0">
          <mxGeometry x="-0.3873" y="4" relative="1" as="geometry">
            <mxPoint x="-9" y="-4" as="offset" />
          </mxGeometry>
        </mxCell>
        <mxCell id="7UAOwMNrpQcqeLbvGITE-63" style="edgeStyle=orthogonalEdgeStyle;rounded=0;orthogonalLoop=1;jettySize=auto;html=1;exitX=1;exitY=0.5;exitDx=0;exitDy=0;fillColor=#f8cecc;strokeColor=#b85450;" parent="1" source="zIfkRoRt6WV4c4BQkqJL-67" edge="1">
          <mxGeometry relative="1" as="geometry">
            <mxPoint x="963" y="607" as="targetPoint" />
          </mxGeometry>
        </mxCell>
        <mxCell id="7UAOwMNrpQcqeLbvGITE-64" value="No" style="edgeLabel;html=1;align=center;verticalAlign=middle;resizable=0;points=[];" parent="7UAOwMNrpQcqeLbvGITE-63" vertex="1" connectable="0">
          <mxGeometry x="-0.3407" y="-2" relative="1" as="geometry">
            <mxPoint as="offset" />
          </mxGeometry>
        </mxCell>
        <mxCell id="zIfkRoRt6WV4c4BQkqJL-67" value="Ultrasonic No Longer&lt;div&gt;Detects Obstacle&lt;/div&gt;" style="rhombus;whiteSpace=wrap;html=1;" parent="1" vertex="1">
          <mxGeometry x="880" y="507" width="165" height="80" as="geometry" />
        </mxCell>
        <mxCell id="zIfkRoRt6WV4c4BQkqJL-81" style="edgeStyle=orthogonalEdgeStyle;rounded=0;orthogonalLoop=1;jettySize=auto;html=1;entryX=1;entryY=0.5;entryDx=0;entryDy=0;exitX=0;exitY=0.5;exitDx=0;exitDy=0;fillColor=#d5e8d4;strokeColor=#82b366;" parent="1" source="zIfkRoRt6WV4c4BQkqJL-79" target="zIfkRoRt6WV4c4BQkqJL-80" edge="1">
          <mxGeometry relative="1" as="geometry" />
        </mxCell>
        <mxCell id="zIfkRoRt6WV4c4BQkqJL-86" value="Yes" style="edgeLabel;html=1;align=center;verticalAlign=middle;resizable=0;points=[];" parent="zIfkRoRt6WV4c4BQkqJL-81" vertex="1" connectable="0">
          <mxGeometry x="0.0314" y="-2" relative="1" as="geometry">
            <mxPoint x="3" y="-1" as="offset" />
          </mxGeometry>
        </mxCell>
        <mxCell id="xBwSClYj_of-0-4DWHHe-87" style="edgeStyle=orthogonalEdgeStyle;rounded=0;orthogonalLoop=1;jettySize=auto;html=1;exitX=0.5;exitY=0;exitDx=0;exitDy=0;entryX=0.75;entryY=1;entryDx=0;entryDy=0;fillColor=#f8cecc;strokeColor=#b85450;" parent="1" source="zIfkRoRt6WV4c4BQkqJL-79" target="zIfkRoRt6WV4c4BQkqJL-78" edge="1">
          <mxGeometry relative="1" as="geometry">
            <Array as="points">
              <mxPoint x="963" y="818" />
              <mxPoint x="747" y="818" />
              <mxPoint x="747" y="759" />
              <mxPoint x="444" y="759" />
            </Array>
          </mxGeometry>
        </mxCell>
        <mxCell id="xBwSClYj_of-0-4DWHHe-88" value="No" style="edgeLabel;html=1;align=center;verticalAlign=middle;resizable=0;points=[];" parent="xBwSClYj_of-0-4DWHHe-87" vertex="1" connectable="0">
          <mxGeometry x="-0.0894" y="2" relative="1" as="geometry">
            <mxPoint x="-4" y="-2" as="offset" />
          </mxGeometry>
        </mxCell>
        <mxCell id="zIfkRoRt6WV4c4BQkqJL-79" value="WIFI Connection lost" style="rhombus;whiteSpace=wrap;html=1;" parent="1" vertex="1">
          <mxGeometry x="875.5" y="897" width="174" height="80" as="geometry" />
        </mxCell>
        <mxCell id="zIfkRoRt6WV4c4BQkqJL-83" value="" style="edgeStyle=orthogonalEdgeStyle;rounded=0;orthogonalLoop=1;jettySize=auto;html=1;entryX=1;entryY=0.5;entryDx=0;entryDy=0;" parent="1" source="zIfkRoRt6WV4c4BQkqJL-80" target="zIfkRoRt6WV4c4BQkqJL-82" edge="1">
          <mxGeometry relative="1" as="geometry" />
        </mxCell>
        <mxCell id="zIfkRoRt6WV4c4BQkqJL-80" value="Wait 30 Seconds" style="rounded=0;whiteSpace=wrap;html=1;" parent="1" vertex="1">
          <mxGeometry x="690" y="907" width="120" height="60" as="geometry" />
        </mxCell>
        <mxCell id="xBwSClYj_of-0-4DWHHe-81" style="edgeStyle=orthogonalEdgeStyle;rounded=0;orthogonalLoop=1;jettySize=auto;html=1;exitX=0.5;exitY=0;exitDx=0;exitDy=0;entryX=0.5;entryY=1;entryDx=0;entryDy=0;fillColor=#f8cecc;strokeColor=#b85450;" parent="1" source="zIfkRoRt6WV4c4BQkqJL-82" target="zIfkRoRt6WV4c4BQkqJL-78" edge="1">
          <mxGeometry relative="1" as="geometry">
            <mxPoint x="371" y="704" as="targetPoint" />
            <Array as="points">
              <mxPoint x="512" y="803" />
              <mxPoint x="361" y="803" />
            </Array>
          </mxGeometry>
        </mxCell>
        <mxCell id="xBwSClYj_of-0-4DWHHe-86" value="No" style="edgeLabel;html=1;align=center;verticalAlign=middle;resizable=0;points=[];" parent="xBwSClYj_of-0-4DWHHe-81" vertex="1" connectable="0">
          <mxGeometry x="-0.1379" y="4" relative="1" as="geometry">
            <mxPoint as="offset" />
          </mxGeometry>
        </mxCell>
        <mxCell id="xBwSClYj_of-0-4DWHHe-84" style="edgeStyle=orthogonalEdgeStyle;rounded=0;orthogonalLoop=1;jettySize=auto;html=1;exitX=0;exitY=0.5;exitDx=0;exitDy=0;entryX=1;entryY=0.5;entryDx=0;entryDy=0;fillColor=#d5e8d4;strokeColor=#82b366;" parent="1" source="zIfkRoRt6WV4c4BQkqJL-82" target="zIfkRoRt6WV4c4BQkqJL-89" edge="1">
          <mxGeometry relative="1" as="geometry" />
        </mxCell>
        <mxCell id="xBwSClYj_of-0-4DWHHe-85" value="Yes" style="edgeLabel;html=1;align=center;verticalAlign=middle;resizable=0;points=[];" parent="xBwSClYj_of-0-4DWHHe-84" vertex="1" connectable="0">
          <mxGeometry x="-0.4118" y="3" relative="1" as="geometry">
            <mxPoint x="-5" y="-3" as="offset" />
          </mxGeometry>
        </mxCell>
        <mxCell id="zIfkRoRt6WV4c4BQkqJL-82" value="WIFI connection stoill lost" style="rhombus;whiteSpace=wrap;html=1;rounded=0;" parent="1" vertex="1">
          <mxGeometry x="422.5" y="897" width="178" height="80" as="geometry" />
        </mxCell>
        <mxCell id="7UAOwMNrpQcqeLbvGITE-55" style="edgeStyle=orthogonalEdgeStyle;rounded=0;orthogonalLoop=1;jettySize=auto;html=1;exitX=0.5;exitY=1;exitDx=0;exitDy=0;fillColor=#0050ef;strokeColor=#001DBC;" parent="1" source="zIfkRoRt6WV4c4BQkqJL-89" edge="1">
          <mxGeometry relative="1" as="geometry">
            <Array as="points">
              <mxPoint x="287" y="987" />
              <mxPoint x="639" y="987" />
              <mxPoint x="639" y="712" />
              <mxPoint x="557" y="712" />
            </Array>
            <mxPoint x="557" y="520" as="targetPoint" />
          </mxGeometry>
        </mxCell>
        <mxCell id="zIfkRoRt6WV4c4BQkqJL-89" value="AUX2 = 1900" style="rounded=0;whiteSpace=wrap;html=1;fillColor=#f8cecc;strokeColor=#b85450;" parent="1" vertex="1">
          <mxGeometry x="225.5" y="907" width="122" height="60" as="geometry" />
        </mxCell>
        <mxCell id="zIfkRoRt6WV4c4BQkqJL-95" style="edgeStyle=orthogonalEdgeStyle;rounded=0;orthogonalLoop=1;jettySize=auto;html=1;exitX=1;exitY=0.5;exitDx=0;exitDy=0;entryX=0;entryY=0.5;entryDx=0;entryDy=0;fillColor=#d5e8d4;strokeColor=#82b366;" parent="1" source="zIfkRoRt6WV4c4BQkqJL-93" target="zIfkRoRt6WV4c4BQkqJL-89" edge="1">
          <mxGeometry relative="1" as="geometry" />
        </mxCell>
        <mxCell id="zIfkRoRt6WV4c4BQkqJL-96" value="Yes" style="edgeLabel;html=1;align=center;verticalAlign=middle;resizable=0;points=[];" parent="zIfkRoRt6WV4c4BQkqJL-95" vertex="1" connectable="0">
          <mxGeometry x="-0.7826" y="3" relative="1" as="geometry">
            <mxPoint x="14" as="offset" />
          </mxGeometry>
        </mxCell>
        <mxCell id="xBwSClYj_of-0-4DWHHe-78" style="edgeStyle=orthogonalEdgeStyle;rounded=0;orthogonalLoop=1;jettySize=auto;html=1;exitX=0.5;exitY=0;exitDx=0;exitDy=0;entryX=0.25;entryY=1;entryDx=0;entryDy=0;fillColor=#f8cecc;strokeColor=#b85450;" parent="1" source="zIfkRoRt6WV4c4BQkqJL-93" target="zIfkRoRt6WV4c4BQkqJL-78" edge="1">
          <mxGeometry relative="1" as="geometry">
            <mxPoint x="265" y="707" as="targetPoint" />
            <Array as="points">
              <mxPoint x="116" y="841" />
              <mxPoint x="279" y="841" />
            </Array>
          </mxGeometry>
        </mxCell>
        <mxCell id="xBwSClYj_of-0-4DWHHe-79" value="No" style="edgeLabel;html=1;align=center;verticalAlign=middle;resizable=0;points=[];" parent="xBwSClYj_of-0-4DWHHe-78" vertex="1" connectable="0">
          <mxGeometry x="0.0941" y="-1" relative="1" as="geometry">
            <mxPoint y="1" as="offset" />
          </mxGeometry>
        </mxCell>
        <mxCell id="zIfkRoRt6WV4c4BQkqJL-93" value="GPIO 19&lt;div&gt;&lt;br&gt;&lt;/div&gt;&lt;div&gt;High&lt;/div&gt;" style="rhombus;whiteSpace=wrap;html=1;rounded=0;" parent="1" vertex="1">
          <mxGeometry x="54.5" y="897" width="122" height="80" as="geometry" />
        </mxCell>
        <mxCell id="zIfkRoRt6WV4c4BQkqJL-104" style="edgeStyle=orthogonalEdgeStyle;rounded=0;orthogonalLoop=1;jettySize=auto;html=1;exitX=1;exitY=0.5;exitDx=0;exitDy=0;fillColor=#d5e8d4;strokeColor=#82b366;" parent="1" source="zIfkRoRt6WV4c4BQkqJL-60" target="zIfkRoRt6WV4c4BQkqJL-58" edge="1">
          <mxGeometry relative="1" as="geometry">
            <mxPoint x="1723.97" y="1258" as="sourcePoint" />
          </mxGeometry>
        </mxCell>
        <mxCell id="zIfkRoRt6WV4c4BQkqJL-117" value="Yes" style="edgeLabel;html=1;align=center;verticalAlign=middle;resizable=0;points=[];" parent="zIfkRoRt6WV4c4BQkqJL-104" vertex="1" connectable="0">
          <mxGeometry x="0.1064" y="-3" relative="1" as="geometry">
            <mxPoint x="-8" y="-5" as="offset" />
          </mxGeometry>
        </mxCell>
        <mxCell id="7UAOwMNrpQcqeLbvGITE-51" style="edgeStyle=orthogonalEdgeStyle;rounded=0;orthogonalLoop=1;jettySize=auto;html=1;exitX=0.5;exitY=0;exitDx=0;exitDy=0;entryX=0.5;entryY=1;entryDx=0;entryDy=0;fillColor=#f8cecc;strokeColor=#b85450;" parent="1" source="zIfkRoRt6WV4c4BQkqJL-60" target="zIfkRoRt6WV4c4BQkqJL-57" edge="1">
          <mxGeometry relative="1" as="geometry" />
        </mxCell>
        <mxCell id="7UAOwMNrpQcqeLbvGITE-52" value="No" style="edgeLabel;html=1;align=center;verticalAlign=middle;resizable=0;points=[];" parent="7UAOwMNrpQcqeLbvGITE-51" vertex="1" connectable="0">
          <mxGeometry x="-0.225" y="1" relative="1" as="geometry">
            <mxPoint as="offset" />
          </mxGeometry>
        </mxCell>
        <mxCell id="zIfkRoRt6WV4c4BQkqJL-60" value="Ultrasonic&amp;nbsp;&lt;div&gt;Detects Obstacle&lt;/div&gt;" style="rhombus;whiteSpace=wrap;html=1;" parent="1" vertex="1">
          <mxGeometry x="642" y="629" width="168" height="80" as="geometry" />
        </mxCell>
        <mxCell id="wATlGdBWmdpMfZXK4wpc-30" style="edgeStyle=orthogonalEdgeStyle;rounded=0;orthogonalLoop=1;jettySize=auto;html=1;entryX=0.5;entryY=0;entryDx=0;entryDy=0;exitX=0.5;exitY=1;exitDx=0;exitDy=0;" parent="1" source="wATlGdBWmdpMfZXK4wpc-26" target="7UAOwMNrpQcqeLbvGITE-40" edge="1">
          <mxGeometry relative="1" as="geometry">
            <mxPoint x="1166.25" y="248" as="targetPoint" />
          </mxGeometry>
        </mxCell>
        <mxCell id="wATlGdBWmdpMfZXK4wpc-26" value="Load Betaflught ecosystem" style="rounded=0;whiteSpace=wrap;html=1;" parent="1" vertex="1">
          <mxGeometry x="1106.25" y="148" width="120" height="60" as="geometry" />
        </mxCell>
        <mxCell id="wATlGdBWmdpMfZXK4wpc-32" style="edgeStyle=orthogonalEdgeStyle;rounded=0;orthogonalLoop=1;jettySize=auto;html=1;entryX=0;entryY=0.5;entryDx=0;entryDy=0;exitX=0.5;exitY=1;exitDx=0;exitDy=0;fillColor=#d5e8d4;strokeColor=#82b366;" parent="1" source="7UAOwMNrpQcqeLbvGITE-40" target="zIfkRoRt6WV4c4BQkqJL-9" edge="1">
          <mxGeometry relative="1" as="geometry">
            <mxPoint x="1166.25" y="308" as="sourcePoint" />
          </mxGeometry>
        </mxCell>
        <mxCell id="xBwSClYj_of-0-4DWHHe-1" value="Raspberry Pi" style="rounded=0;whiteSpace=wrap;html=1;" parent="1" vertex="1">
          <mxGeometry x="-58" y="-18" width="597" height="60" as="geometry" />
        </mxCell>
        <mxCell id="xBwSClYj_of-0-4DWHHe-2" value="Arduino" style="rounded=0;whiteSpace=wrap;html=1;" parent="1" vertex="1">
          <mxGeometry x="543" y="-18" width="450.5" height="60" as="geometry" />
        </mxCell>
        <mxCell id="xBwSClYj_of-0-4DWHHe-3" value="Flight Controller" style="rounded=0;whiteSpace=wrap;html=1;" parent="1" vertex="1">
          <mxGeometry x="998.5" y="-18" width="450.5" height="60" as="geometry" />
        </mxCell>
        <mxCell id="xBwSClYj_of-0-4DWHHe-39" style="edgeStyle=orthogonalEdgeStyle;rounded=0;orthogonalLoop=1;jettySize=auto;html=1;exitX=0.5;exitY=1;exitDx=0;exitDy=0;entryX=0.5;entryY=0;entryDx=0;entryDy=0;" parent="1" source="xBwSClYj_of-0-4DWHHe-23" target="zIfkRoRt6WV4c4BQkqJL-16" edge="1">
          <mxGeometry relative="1" as="geometry">
            <mxPoint x="93" y="173" as="targetPoint" />
          </mxGeometry>
        </mxCell>
        <mxCell id="xBwSClYj_of-0-4DWHHe-23" value="Start" style="rounded=1;whiteSpace=wrap;html=1;fillColor=#60a917;strokeColor=#2D7600;fontColor=#ffffff;" parent="1" vertex="1">
          <mxGeometry x="33" y="48" width="120" height="60" as="geometry" />
        </mxCell>
        <mxCell id="7UAOwMNrpQcqeLbvGITE-11" style="edgeStyle=orthogonalEdgeStyle;rounded=0;orthogonalLoop=1;jettySize=auto;html=1;entryX=0.5;entryY=0;entryDx=0;entryDy=0;fillColor=#d5e8d4;strokeColor=#82b366;" parent="1" target="7UAOwMNrpQcqeLbvGITE-25" edge="1">
          <mxGeometry relative="1" as="geometry">
            <mxPoint x="253" y="394" as="targetPoint" />
            <mxPoint x="93" y="338" as="sourcePoint" />
          </mxGeometry>
        </mxCell>
        <mxCell id="7UAOwMNrpQcqeLbvGITE-26" style="edgeStyle=orthogonalEdgeStyle;rounded=0;orthogonalLoop=1;jettySize=auto;html=1;fillColor=#d5e8d4;strokeColor=#82b366;" parent="1" source="7UAOwMNrpQcqeLbvGITE-5" edge="1">
          <mxGeometry relative="1" as="geometry">
            <mxPoint x="93" y="476" as="targetPoint" />
          </mxGeometry>
        </mxCell>
        <mxCell id="7UAOwMNrpQcqeLbvGITE-29" value="Yes" style="edgeLabel;html=1;align=center;verticalAlign=middle;resizable=0;points=[];" parent="7UAOwMNrpQcqeLbvGITE-26" vertex="1" connectable="0">
          <mxGeometry x="-0.3883" y="-2" relative="1" as="geometry">
            <mxPoint x="2" y="8" as="offset" />
          </mxGeometry>
        </mxCell>
        <mxCell id="7UAOwMNrpQcqeLbvGITE-5" value="GPIO 21&lt;div&gt;&lt;br&gt;&lt;/div&gt;&lt;div&gt;High&lt;/div&gt;" style="rhombus;whiteSpace=wrap;html=1;" parent="1" vertex="1">
          <mxGeometry x="13" y="354" width="160" height="80" as="geometry" />
        </mxCell>
        <mxCell id="7UAOwMNrpQcqeLbvGITE-9" style="edgeStyle=orthogonalEdgeStyle;rounded=0;orthogonalLoop=1;jettySize=auto;html=1;exitX=0;exitY=0.5;exitDx=0;exitDy=0;fillColor=#f8cecc;strokeColor=#b85450;" parent="1" source="7UAOwMNrpQcqeLbvGITE-5" edge="1">
          <mxGeometry relative="1" as="geometry">
            <mxPoint x="90" y="336" as="targetPoint" />
            <mxPoint x="3" y="396" as="sourcePoint" />
            <Array as="points">
              <mxPoint x="-41" y="394" />
              <mxPoint x="-41" y="336" />
            </Array>
          </mxGeometry>
        </mxCell>
        <mxCell id="7UAOwMNrpQcqeLbvGITE-10" value="No" style="edgeLabel;html=1;align=center;verticalAlign=middle;resizable=0;points=[];" parent="7UAOwMNrpQcqeLbvGITE-9" vertex="1" connectable="0">
          <mxGeometry x="-0.2646" y="-3" relative="1" as="geometry">
            <mxPoint as="offset" />
          </mxGeometry>
        </mxCell>
        <mxCell id="7UAOwMNrpQcqeLbvGITE-14" style="edgeStyle=orthogonalEdgeStyle;rounded=0;orthogonalLoop=1;jettySize=auto;html=1;" parent="1" source="7UAOwMNrpQcqeLbvGITE-12" target="7UAOwMNrpQcqeLbvGITE-16" edge="1">
          <mxGeometry relative="1" as="geometry">
            <mxPoint x="663" y="149" as="targetPoint" />
          </mxGeometry>
        </mxCell>
        <mxCell id="7UAOwMNrpQcqeLbvGITE-12" value="Start" style="rounded=1;whiteSpace=wrap;html=1;fillColor=#60a917;strokeColor=#2D7600;fontColor=#ffffff;" parent="1" vertex="1">
          <mxGeometry x="603" y="48" width="120" height="60" as="geometry" />
        </mxCell>
        <mxCell id="7UAOwMNrpQcqeLbvGITE-17" style="edgeStyle=orthogonalEdgeStyle;rounded=0;orthogonalLoop=1;jettySize=auto;html=1;" parent="1" source="7UAOwMNrpQcqeLbvGITE-16" target="7UAOwMNrpQcqeLbvGITE-18" edge="1">
          <mxGeometry relative="1" as="geometry">
            <mxPoint x="663" y="257" as="targetPoint" />
          </mxGeometry>
        </mxCell>
        <mxCell id="7UAOwMNrpQcqeLbvGITE-16" value="Enable SBUS Communiation Architecture" style="rounded=0;whiteSpace=wrap;html=1;" parent="1" vertex="1">
          <mxGeometry x="603" y="148" width="120" height="60" as="geometry" />
        </mxCell>
        <mxCell id="7UAOwMNrpQcqeLbvGITE-19" style="edgeStyle=orthogonalEdgeStyle;rounded=0;orthogonalLoop=1;jettySize=auto;html=1;entryX=0;entryY=0.25;entryDx=0;entryDy=0;fillColor=#6a00ff;strokeColor=#3700CC;" parent="1" source="7UAOwMNrpQcqeLbvGITE-18" target="7UAOwMNrpQcqeLbvGITE-43" edge="1">
          <mxGeometry relative="1" as="geometry">
            <mxPoint x="916" y="287" as="targetPoint" />
          </mxGeometry>
        </mxCell>
        <mxCell id="7UAOwMNrpQcqeLbvGITE-20" style="edgeStyle=orthogonalEdgeStyle;rounded=0;orthogonalLoop=1;jettySize=auto;html=1;entryX=0.5;entryY=0;entryDx=0;entryDy=0;" parent="1" source="7UAOwMNrpQcqeLbvGITE-18" target="7UAOwMNrpQcqeLbvGITE-21" edge="1">
          <mxGeometry relative="1" as="geometry">
            <mxPoint x="663" y="365" as="targetPoint" />
          </mxGeometry>
        </mxCell>
        <mxCell id="7UAOwMNrpQcqeLbvGITE-18" value="Send starting values to FC" style="rounded=0;whiteSpace=wrap;html=1;" parent="1" vertex="1">
          <mxGeometry x="603" y="257" width="120" height="60" as="geometry" />
        </mxCell>
        <mxCell id="7UAOwMNrpQcqeLbvGITE-22" style="edgeStyle=orthogonalEdgeStyle;rounded=0;orthogonalLoop=1;jettySize=auto;html=1;" parent="1" source="7UAOwMNrpQcqeLbvGITE-21" target="7UAOwMNrpQcqeLbvGITE-23" edge="1">
          <mxGeometry relative="1" as="geometry">
            <mxPoint x="663" y="453" as="targetPoint" />
          </mxGeometry>
        </mxCell>
        <mxCell id="7UAOwMNrpQcqeLbvGITE-21" value="Read data form Raspbery Pi and Update FC variables" style="rounded=0;whiteSpace=wrap;html=1;" parent="1" vertex="1">
          <mxGeometry x="603" y="357" width="120" height="60" as="geometry" />
        </mxCell>
        <mxCell id="7UAOwMNrpQcqeLbvGITE-24" style="edgeStyle=orthogonalEdgeStyle;rounded=0;orthogonalLoop=1;jettySize=auto;html=1;entryX=0;entryY=0.75;entryDx=0;entryDy=0;fillColor=#6a00ff;strokeColor=#3700CC;" parent="1" source="7UAOwMNrpQcqeLbvGITE-23" target="7UAOwMNrpQcqeLbvGITE-43" edge="1">
          <mxGeometry relative="1" as="geometry">
            <mxPoint x="924" y="516" as="targetPoint" />
            <Array as="points">
              <mxPoint x="815" y="516" />
              <mxPoint x="815" y="453" />
            </Array>
          </mxGeometry>
        </mxCell>
        <mxCell id="7UAOwMNrpQcqeLbvGITE-23" value="Transmit Variables to Flight controller via SBUS protocal" style="rounded=0;whiteSpace=wrap;html=1;" parent="1" vertex="1">
          <mxGeometry x="603" y="486" width="120" height="60" as="geometry" />
        </mxCell>
        <mxCell id="7UAOwMNrpQcqeLbvGITE-32" style="edgeStyle=orthogonalEdgeStyle;rounded=0;orthogonalLoop=1;jettySize=auto;html=1;exitX=1;exitY=0.5;exitDx=0;exitDy=0;fillColor=#0050ef;strokeColor=#001DBC;" parent="1" source="7UAOwMNrpQcqeLbvGITE-25" edge="1">
          <mxGeometry relative="1" as="geometry">
            <Array as="points">
              <mxPoint x="366" y="394" />
              <mxPoint x="366" y="459" />
              <mxPoint x="446" y="459" />
            </Array>
            <mxPoint x="446" y="513" as="targetPoint" />
          </mxGeometry>
        </mxCell>
        <mxCell id="7UAOwMNrpQcqeLbvGITE-25" value="Send Enable ARM mode setting&lt;div&gt;(AUX1 = 1900)&lt;/div&gt;" style="rounded=0;whiteSpace=wrap;html=1;" parent="1" vertex="1">
          <mxGeometry x="226" y="364" width="120" height="60" as="geometry" />
        </mxCell>
        <mxCell id="7UAOwMNrpQcqeLbvGITE-31" style="edgeStyle=orthogonalEdgeStyle;rounded=0;orthogonalLoop=1;jettySize=auto;html=1;entryX=0.5;entryY=0;entryDx=0;entryDy=0;fillColor=#d5e8d4;strokeColor=#82b366;" parent="1" target="7UAOwMNrpQcqeLbvGITE-30" edge="1">
          <mxGeometry relative="1" as="geometry">
            <mxPoint x="94" y="466" as="sourcePoint" />
          </mxGeometry>
        </mxCell>
        <mxCell id="7UAOwMNrpQcqeLbvGITE-34" style="edgeStyle=orthogonalEdgeStyle;rounded=0;orthogonalLoop=1;jettySize=auto;html=1;fillColor=#f8cecc;strokeColor=#b85450;" parent="1" source="7UAOwMNrpQcqeLbvGITE-28" edge="1">
          <mxGeometry relative="1" as="geometry">
            <mxPoint x="91" y="443" as="targetPoint" />
            <Array as="points">
              <mxPoint x="-40" y="516" />
              <mxPoint x="-40" y="443" />
            </Array>
          </mxGeometry>
        </mxCell>
        <mxCell id="7UAOwMNrpQcqeLbvGITE-35" value="No" style="edgeLabel;html=1;align=center;verticalAlign=middle;resizable=0;points=[];" parent="7UAOwMNrpQcqeLbvGITE-34" vertex="1" connectable="0">
          <mxGeometry x="-0.3307" y="3" relative="1" as="geometry">
            <mxPoint as="offset" />
          </mxGeometry>
        </mxCell>
        <mxCell id="7UAOwMNrpQcqeLbvGITE-36" style="edgeStyle=orthogonalEdgeStyle;rounded=0;orthogonalLoop=1;jettySize=auto;html=1;exitX=0.5;exitY=1;exitDx=0;exitDy=0;entryX=0.5;entryY=0;entryDx=0;entryDy=0;fillColor=#d5e8d4;strokeColor=#82b366;" parent="1" source="7UAOwMNrpQcqeLbvGITE-28" target="zIfkRoRt6WV4c4BQkqJL-31" edge="1">
          <mxGeometry relative="1" as="geometry" />
        </mxCell>
        <mxCell id="WVDPErHF-b77zxdCwwdA-1" value="Yes" style="edgeLabel;html=1;align=center;verticalAlign=middle;resizable=0;points=[];" vertex="1" connectable="0" parent="7UAOwMNrpQcqeLbvGITE-36">
          <mxGeometry x="-0.2683" y="-1" relative="1" as="geometry">
            <mxPoint as="offset" />
          </mxGeometry>
        </mxCell>
        <mxCell id="7UAOwMNrpQcqeLbvGITE-28" value="GPIO 26&lt;div&gt;&lt;br&gt;&lt;/div&gt;&lt;div&gt;High&lt;/div&gt;" style="rhombus;whiteSpace=wrap;html=1;" parent="1" vertex="1">
          <mxGeometry x="13" y="476" width="160" height="80" as="geometry" />
        </mxCell>
        <mxCell id="7UAOwMNrpQcqeLbvGITE-33" style="edgeStyle=orthogonalEdgeStyle;rounded=0;orthogonalLoop=1;jettySize=auto;html=1;entryX=0;entryY=0.5;entryDx=0;entryDy=0;fillColor=#0050ef;strokeColor=#001DBC;" parent="1" source="7UAOwMNrpQcqeLbvGITE-30" target="7UAOwMNrpQcqeLbvGITE-23" edge="1">
          <mxGeometry relative="1" as="geometry" />
        </mxCell>
        <mxCell id="7UAOwMNrpQcqeLbvGITE-30" value="Launch Drone" style="rounded=0;whiteSpace=wrap;html=1;" parent="1" vertex="1">
          <mxGeometry x="224" y="486" width="120" height="60" as="geometry" />
        </mxCell>
        <mxCell id="7UAOwMNrpQcqeLbvGITE-39" style="edgeStyle=orthogonalEdgeStyle;rounded=0;orthogonalLoop=1;jettySize=auto;html=1;entryX=0.5;entryY=0;entryDx=0;entryDy=0;" parent="1" source="7UAOwMNrpQcqeLbvGITE-38" target="wATlGdBWmdpMfZXK4wpc-26" edge="1">
          <mxGeometry relative="1" as="geometry" />
        </mxCell>
        <mxCell id="7UAOwMNrpQcqeLbvGITE-38" value="Start" style="rounded=1;whiteSpace=wrap;html=1;fillColor=#60a917;strokeColor=#2D7600;fontColor=#ffffff;" parent="1" vertex="1">
          <mxGeometry x="1106.25" y="48" width="120" height="60" as="geometry" />
        </mxCell>
        <mxCell id="7UAOwMNrpQcqeLbvGITE-44" style="edgeStyle=orthogonalEdgeStyle;rounded=0;orthogonalLoop=1;jettySize=auto;html=1;exitX=0.5;exitY=1;exitDx=0;exitDy=0;entryX=0.5;entryY=0;entryDx=0;entryDy=0;fillColor=#d5e8d4;strokeColor=#82b366;" parent="1" source="7UAOwMNrpQcqeLbvGITE-40" target="7UAOwMNrpQcqeLbvGITE-43" edge="1">
          <mxGeometry relative="1" as="geometry" />
        </mxCell>
        <mxCell id="7UAOwMNrpQcqeLbvGITE-45" value="Yes" style="edgeLabel;html=1;align=center;verticalAlign=middle;resizable=0;points=[];" parent="7UAOwMNrpQcqeLbvGITE-44" vertex="1" connectable="0">
          <mxGeometry x="-0.5309" relative="1" as="geometry">
            <mxPoint as="offset" />
          </mxGeometry>
        </mxCell>
        <mxCell id="WVDPErHF-b77zxdCwwdA-3" style="edgeStyle=orthogonalEdgeStyle;rounded=0;orthogonalLoop=1;jettySize=auto;html=1;fillColor=#f8cecc;strokeColor=#b85450;" edge="1" parent="1" source="7UAOwMNrpQcqeLbvGITE-40">
          <mxGeometry relative="1" as="geometry">
            <mxPoint x="1166" y="225" as="targetPoint" />
            <Array as="points">
              <mxPoint x="1305" y="287" />
            </Array>
          </mxGeometry>
        </mxCell>
        <mxCell id="WVDPErHF-b77zxdCwwdA-4" value="No" style="edgeLabel;html=1;align=center;verticalAlign=middle;resizable=0;points=[];" vertex="1" connectable="0" parent="WVDPErHF-b77zxdCwwdA-3">
          <mxGeometry x="-0.3244" y="-3" relative="1" as="geometry">
            <mxPoint as="offset" />
          </mxGeometry>
        </mxCell>
        <mxCell id="7UAOwMNrpQcqeLbvGITE-40" value="&lt;div&gt;&lt;br&gt;&lt;/div&gt;&lt;div&gt;&lt;br&gt;&lt;/div&gt;1700 &amp;lt; AUX 1 &amp;lt; 2000&lt;div&gt;&lt;br&gt;&lt;/div&gt;&lt;div&gt;&lt;br&gt;&lt;/div&gt;" style="rhombus;whiteSpace=wrap;html=1;" parent="1" vertex="1">
          <mxGeometry x="1086.25" y="247" width="160" height="80" as="geometry" />
        </mxCell>
        <mxCell id="7UAOwMNrpQcqeLbvGITE-54" style="edgeStyle=orthogonalEdgeStyle;rounded=0;orthogonalLoop=1;jettySize=auto;html=1;exitX=0.5;exitY=1;exitDx=0;exitDy=0;entryX=0.5;entryY=0;entryDx=0;entryDy=0;" parent="1" source="7UAOwMNrpQcqeLbvGITE-43" target="7UAOwMNrpQcqeLbvGITE-53" edge="1">
          <mxGeometry relative="1" as="geometry" />
        </mxCell>
        <mxCell id="7UAOwMNrpQcqeLbvGITE-43" value="Decode SBUS Data" style="rounded=0;whiteSpace=wrap;html=1;" parent="1" vertex="1">
          <mxGeometry x="1106.25" y="408" width="120" height="60" as="geometry" />
        </mxCell>
        <mxCell id="7UAOwMNrpQcqeLbvGITE-65" style="edgeStyle=orthogonalEdgeStyle;rounded=0;orthogonalLoop=1;jettySize=auto;html=1;exitX=0.5;exitY=1;exitDx=0;exitDy=0;entryX=0.5;entryY=0;entryDx=0;entryDy=0;" parent="1" source="7UAOwMNrpQcqeLbvGITE-53" target="7UAOwMNrpQcqeLbvGITE-59" edge="1">
          <mxGeometry relative="1" as="geometry" />
        </mxCell>
        <mxCell id="7UAOwMNrpQcqeLbvGITE-53" value="Update Channels on FC" style="rounded=0;whiteSpace=wrap;html=1;" parent="1" vertex="1">
          <mxGeometry x="1106" y="498" width="120" height="60" as="geometry" />
        </mxCell>
        <mxCell id="7UAOwMNrpQcqeLbvGITE-66" style="edgeStyle=orthogonalEdgeStyle;rounded=0;orthogonalLoop=1;jettySize=auto;html=1;entryX=0;entryY=0.5;entryDx=0;entryDy=0;fillColor=#d5e8d4;strokeColor=#82b366;" parent="1" source="7UAOwMNrpQcqeLbvGITE-59" target="7UAOwMNrpQcqeLbvGITE-68" edge="1">
          <mxGeometry relative="1" as="geometry">
            <mxPoint x="1314" y="627" as="targetPoint" />
          </mxGeometry>
        </mxCell>
        <mxCell id="WVDPErHF-b77zxdCwwdA-5" value="Yes" style="edgeLabel;html=1;align=center;verticalAlign=middle;resizable=0;points=[];" vertex="1" connectable="0" parent="7UAOwMNrpQcqeLbvGITE-66">
          <mxGeometry x="-0.2171" y="-1" relative="1" as="geometry">
            <mxPoint as="offset" />
          </mxGeometry>
        </mxCell>
        <mxCell id="7UAOwMNrpQcqeLbvGITE-71" style="edgeStyle=orthogonalEdgeStyle;rounded=0;orthogonalLoop=1;jettySize=auto;html=1;entryX=0.5;entryY=0;entryDx=0;entryDy=0;fillColor=#f8cecc;strokeColor=#b85450;" parent="1" source="7UAOwMNrpQcqeLbvGITE-59" target="7UAOwMNrpQcqeLbvGITE-69" edge="1">
          <mxGeometry relative="1" as="geometry" />
        </mxCell>
        <mxCell id="WVDPErHF-b77zxdCwwdA-6" value="No" style="edgeLabel;html=1;align=center;verticalAlign=middle;resizable=0;points=[];" vertex="1" connectable="0" parent="7UAOwMNrpQcqeLbvGITE-71">
          <mxGeometry x="-0.3599" y="3" relative="1" as="geometry">
            <mxPoint y="2" as="offset" />
          </mxGeometry>
        </mxCell>
        <mxCell id="7UAOwMNrpQcqeLbvGITE-59" value="&lt;div&gt;&lt;br&gt;&lt;/div&gt;&lt;div&gt;&lt;br&gt;&lt;/div&gt;1700 &amp;lt; AUX 2 &amp;lt; 2000&lt;div&gt;&lt;br&gt;&lt;/div&gt;&lt;div&gt;&lt;br&gt;&lt;/div&gt;" style="rhombus;whiteSpace=wrap;html=1;" parent="1" vertex="1">
          <mxGeometry x="1086.25" y="589" width="160" height="80" as="geometry" />
        </mxCell>
        <mxCell id="7UAOwMNrpQcqeLbvGITE-76" style="edgeStyle=orthogonalEdgeStyle;rounded=0;orthogonalLoop=1;jettySize=auto;html=1;" parent="1" source="7UAOwMNrpQcqeLbvGITE-68" target="7UAOwMNrpQcqeLbvGITE-75" edge="1">
          <mxGeometry relative="1" as="geometry" />
        </mxCell>
        <mxCell id="7UAOwMNrpQcqeLbvGITE-68" value="Activate Failsafe Mode" style="rounded=0;whiteSpace=wrap;html=1;" parent="1" vertex="1">
          <mxGeometry x="1311" y="494" width="120" height="60" as="geometry" />
        </mxCell>
        <mxCell id="7UAOwMNrpQcqeLbvGITE-72" style="edgeStyle=orthogonalEdgeStyle;rounded=0;orthogonalLoop=1;jettySize=auto;html=1;entryX=1;entryY=0.5;entryDx=0;entryDy=0;exitX=1;exitY=0.5;exitDx=0;exitDy=0;" parent="1" source="7UAOwMNrpQcqeLbvGITE-69" target="7UAOwMNrpQcqeLbvGITE-43" edge="1">
          <mxGeometry relative="1" as="geometry">
            <Array as="points">
              <mxPoint x="1453" y="733" />
              <mxPoint x="1453" y="438" />
            </Array>
          </mxGeometry>
        </mxCell>
        <mxCell id="7UAOwMNrpQcqeLbvGITE-69" value="Implement FC channels to control Motor" style="rounded=0;whiteSpace=wrap;html=1;" parent="1" vertex="1">
          <mxGeometry x="1106" y="700" width="120" height="60" as="geometry" />
        </mxCell>
        <mxCell id="7UAOwMNrpQcqeLbvGITE-75" value="Deactivate and land drone" style="rounded=0;whiteSpace=wrap;html=1;" parent="1" vertex="1">
          <mxGeometry x="1311" y="599" width="120" height="60" as="geometry" />
        </mxCell>
      </root>
    </mxGraphModel>
  </diagram>
</mxfile>
